<?xml version="1.0" encoding="UTF-8"?>
<svg xmlns="http://www.w3.org/2000/svg" xmlns:xlink="http://www.w3.org/1999/xlink" width="20px" height="20px" viewBox="0 0 20 20" version="1.1">
<g id="surface1">
<path style=" stroke:none;fill-rule:nonzero;fill:rgb(0%,0%,0%);fill-opacity:1;" d="M 7.5 11.863281 C 7.238281 11.863281 7.027344 12.074219 7.027344 12.335938 C 7.027344 12.59375 7.238281 12.808594 7.5 12.808594 C 7.761719 12.808594 7.972656 12.59375 7.972656 12.335938 C 7.972656 12.074219 7.761719 11.863281 7.5 11.863281 M 11.960938 13.28125 C 11.699219 13.28125 11.484375 13.496094 11.484375 13.753906 C 11.484375 14.015625 11.699219 14.226562 11.960938 14.226562 C 12.21875 14.226562 12.433594 14.015625 12.433594 13.753906 C 12.433594 13.496094 12.21875 13.28125 11.960938 13.28125 M 18.960938 14.480469 C 18.800781 14.558594 18.574219 14.5625 18.367188 14.488281 C 18.226562 14.441406 18.074219 14.394531 17.921875 14.347656 C 17.636719 14.261719 17.167969 14.117188 17.078125 14.007812 C 16.929688 13.8125 16.652344 13.773438 16.453125 13.921875 C 16.257812 14.066406 16.21875 14.347656 16.367188 14.542969 C 16.417969 14.609375 16.484375 14.664062 16.550781 14.71875 C 15.871094 15.660156 12.886719 17.535156 8.664062 16.613281 C 6.761719 16.195312 5.480469 15.433594 4.960938 14.414062 C 4.585938 13.675781 4.671875 12.914062 4.851562 12.5 C 5.367188 11.425781 9.097656 8.949219 11.480469 7.550781 C 11.691406 7.421875 11.761719 7.152344 11.636719 6.9375 C 11.511719 6.726562 11.226562 6.640625 11.027344 6.78125 C 10.835938 6.894531 10.183594 7.28125 9.347656 7.8125 C 9.066406 7.621094 8.578125 7.386719 7.796875 7.3125 C 6.558594 7.1875 3.699219 6.640625 2.773438 6.25 C 2.113281 5.96875 0.609375 5.226562 0.941406 4.390625 C 1.019531 4.195312 1.382812 3.878906 2.167969 3.578125 C 2.703125 3.375 3.261719 3.238281 3.828125 3.167969 L 3.652344 3.253906 C 3.117188 3.511719 2.535156 3.804688 2.140625 4.148438 C 2.113281 4.128906 2.085938 4.113281 2.0625 4.089844 C 1.984375 4.003906 1.871094 3.953125 1.753906 3.953125 C 1.632812 3.949219 1.519531 3.996094 1.4375 4.078125 C 1.351562 4.160156 1.300781 4.269531 1.296875 4.390625 C 1.296875 4.507812 1.339844 4.621094 1.421875 4.707031 C 1.578125 4.875 1.8125 5 2.113281 5.09375 L 2.144531 5.105469 C 3.183594 5.425781 5.027344 5.386719 7.625 5.28125 C 8.746094 5.238281 9.804688 5.199219 10.6875 5.214844 C 13.613281 5.273438 15.816406 6.4375 17.414062 8.78125 C 18.394531 10.21875 18.039062 11.636719 17.480469 12.867188 C 17.40625 12.8125 17.34375 12.75 17.285156 12.679688 C 17.132812 12.492188 16.855469 12.460938 16.660156 12.609375 C 16.46875 12.761719 16.4375 13.042969 16.589844 13.234375 C 16.679688 13.351562 17.144531 13.882812 17.71875 13.839844 L 17.75 13.835938 C 17.765625 13.835938 17.785156 13.839844 17.804688 13.835938 C 18.195312 13.761719 18.441406 13.78125 18.675781 13.925781 C 18.980469 14.121094 19.128906 14.234375 19.101562 14.332031 C 19.082031 14.390625 19.035156 14.4375 18.960938 14.480469 M 6.824219 9.515625 L 6.5625 9.707031 C 6.484375 9.628906 6.417969 9.539062 6.359375 9.441406 C 6.460938 9.410156 6.636719 9.445312 6.824219 9.515625 M 19.101562 13.144531 C 18.898438 13.019531 18.667969 12.941406 18.425781 12.921875 C 18.953125 11.632812 19.289062 9.949219 18.148438 8.277344 C 16.402344 5.714844 13.898438 4.386719 10.707031 4.324219 C 9.796875 4.304688 8.726562 4.347656 7.589844 4.390625 C 6.273438 4.445312 4.523438 4.511719 3.332031 4.414062 C 3.570312 4.285156 3.820312 4.160156 4.039062 4.054688 C 4.878906 3.648438 5.539062 3.328125 5.320312 2.765625 C 5.207031 2.4375 4.863281 2.261719 4.304688 2.25 C 3.125 2.222656 0.574219 2.90625 0.113281 4.058594 C -0.144531 4.710938 -0.1875 5.960938 2.425781 7.066406 C 3.503906 7.523438 6.539062 8.082031 7.710938 8.199219 C 8.042969 8.230469 8.296875 8.296875 8.488281 8.367188 C 8.210938 8.550781 7.9375 8.734375 7.664062 8.921875 C 7.183594 8.648438 6.398438 8.324219 5.8125 8.722656 C 5.589844 8.863281 5.457031 9.105469 5.449219 9.363281 C 5.441406 9.683594 5.636719 10 5.851562 10.253906 C 4.988281 10.945312 4.289062 11.613281 4.039062 12.128906 C 3.765625 12.765625 3.652344 13.804688 4.167969 14.816406 C 4.824219 16.101562 6.273438 17 8.472656 17.484375 C 11.351562 18.113281 13.835938 17.546875 15.484375 16.675781 C 16.398438 16.195312 17.046875 15.621094 17.363281 15.105469 L 17.660156 15.199219 C 17.800781 15.242188 17.941406 15.285156 18.074219 15.332031 C 18.507812 15.484375 18.988281 15.460938 19.359375 15.273438 L 19.382812 15.265625 C 19.660156 15.117188 19.863281 14.878906 19.949219 14.59375 C 20.1875 13.828125 19.511719 13.402344 19.101562 13.144531 "/>
</g>
</svg>
